<?xml version="1.0" encoding="UTF-8"?>
<svg width="40px" height="29px" viewBox="0 0 40 29" version="1.1" xmlns="http://www.w3.org/2000/svg" xmlns:xlink="http://www.w3.org/1999/xlink">
    <title>Group</title>
    <g id="Page-1" stroke="none" stroke-width="1" fill="none" fill-rule="evenodd">
        <g id="Group" fill="#000000" fill-rule="nonzero">
            <path d="M13.8770492,0.0286885246 C18.5487522,0.0286885246 22.8677656,1.63184115 25.4325057,4.32298336 C26.2426461,5.17188652 26.8420327,6.10210807 27.2339076,7.08228828 L27.2521248,7.1282707 L27.270241,7.17484971 L27.2879651,7.22129656 L27.3081075,7.27459016 L27.3647541,7.27459016 C27.4291594,7.27459016 27.493565,7.2725268 27.5579613,7.27044951 C27.6245214,7.2683002 27.6852114,7.26639344 27.7459016,7.26639344 C31.1283481,7.26639344 34.195468,8.2729398 36.4166608,9.90009266 C38.6271818,11.5194278 40,13.7541045 40,16.2213115 C40,17.9773045 39.3164833,19.6348502 38.0977909,21.0365569 C37.0939518,22.1911451 35.7278041,23.1719967 34.0805022,23.8924677 C33.7116896,24.0537732 33.3287759,24.2020436 32.9327017,24.3363061 C32.9088609,24.3443877 32.8850271,24.3524 32.8612133,24.3603549 C32.8672369,24.3847175 32.8733343,24.4092169 32.8795063,24.4338534 C33.3409751,26.275883 34.1732922,27.4956338 34.374811,27.7908205 C34.4114577,27.8445009 34.432525,27.8786716 34.4386479,27.8907518 C34.544037,28.0986818 34.5082153,28.3053964 34.4942587,28.3612595 C34.4780139,28.4275041 34.4166787,28.6244926 34.2241964,28.7611829 C34.1094012,28.8427041 33.9484949,28.9016393 33.7254098,28.9016393 C33.2171501,28.9016393 31.1032639,28.4869146 29.2238445,27.5101251 C28.1172405,26.9349905 27.090347,26.1648719 26.5263156,25.1646562 C26.5191393,25.1519303 26.5120331,25.1391607 26.5049857,25.1263519 C26.490302,25.12531 26.4756134,25.1242496 26.4609199,25.1231709 C22.0814776,24.8016319 18.3775287,22.9176092 16.6061948,20.1119791 C16.5967768,20.0970619 16.5874058,20.0821071 16.5780738,20.0671278 C16.5605411,20.0696336 16.5430232,20.0721118 16.5255207,20.0745622 C16.1173388,20.1317076 15.696911,20.1766033 15.2724019,20.2092578 C15.2575184,20.2104027 15.2426376,20.211532 15.2277629,20.2126523 C15.2208114,20.2257291 15.2137945,20.2387674 15.2067117,20.2517667 C14.5852983,21.3922785 13.428522,22.2703119 12.1754689,22.9258703 C10.0449569,24.040488 7.6313466,24.5122951 7.05327869,24.5122951 C6.82210066,24.5122951 6.65614824,24.4532745 6.53828721,24.3706042 C6.34994324,24.2384957 6.2865959,24.048917 6.26843111,23.9694293 C6.26208939,23.9408972 6.23445947,23.861744 6.32137758,23.7145918 C6.33964119,23.6843912 6.35244316,23.6643855 6.36811164,23.6407405 C6.46452623,23.4969038 6.63184582,23.2668693 6.88006205,22.9360455 C7.17098496,22.4861672 7.635205,21.4509061 8.13285086,19.4377023 C8.13895525,19.4130074 8.14499557,19.3884431 8.15096172,19.3640164 C8.12704758,19.3561625 8.1031266,19.3482477 8.07919902,19.3402718 C5.60651381,18.5160435 3.58177798,17.2123204 2.17714175,15.611672 C0.782675541,14.0226127 0,12.1409599 0,10.147541 C0,7.36100152 1.55482402,4.83667799 4.05878205,3.00686251 C6.57413553,1.16871957 10.0474133,0.0307277467 13.8770492,0.0286885246 Z M27.7705323,8.59790984 L27.7612705,8.59790984 L27.7667844,8.62551057 C27.7713095,8.64873721 27.7757378,8.67200193 27.7800683,8.6953043 C27.8652061,9.15342689 27.9098361,9.61154746 27.9098361,10.0696721 C27.9098361,12.3095261 26.9120448,14.4224173 25.2095668,16.1405797 C23.4888945,17.8771041 21.0487646,19.2105737 18.1865995,19.8668273 C18.1447302,19.8764273 18.102879,19.8858577 18.0610471,19.8951187 C18.0873146,19.9295923 18.1138561,19.9637545 18.1406544,19.9976017 C19.8816693,22.1965613 23.1469441,23.641282 26.9712207,23.8277741 C27.1016832,23.8353292 27.222655,23.8792403 27.3236579,23.9512048 C27.4238063,24.0225606 27.5043552,24.1215517 27.5550962,24.2437225 C28.1690784,25.7703492 30.5974481,26.8056956 32.2520198,27.2796182 C32.3056915,27.2949915 32.3603212,27.3102506 32.4158376,27.3253565 C32.393002,27.2721668 32.3711951,27.2202823 32.3504115,27.1696788 C32.0689581,26.4844011 31.7551288,25.4973673 31.4284499,24.0603859 C31.3899668,23.8863204 31.4210156,23.7135237 31.5043044,23.5718671 C31.5871108,23.431031 31.7215766,23.3210855 31.8912268,23.2714802 C33.9485595,22.6786523 35.6413064,21.6914777 36.819166,20.4683193 C38.0034404,19.2384993 38.6679367,17.7700878 38.6640439,16.2211269 C38.6640439,14.1322011 37.4553052,12.2343309 35.4930927,10.8541839 C33.5604627,9.4948441 30.8969188,8.63842041 27.9511505,8.59930172 L27.9511505,8.59930172 L27.8612828,8.59836389 L27.7705323,8.59790984 Z M13.8811475,1.36065574 C10.4242309,1.36065574 7.29021434,2.34335602 5.02002541,3.92793743 C2.73695564,5.52150963 1.32786885,7.72309246 1.32786885,10.147541 C1.32786885,11.9358526 2.0938052,13.628709 3.45581956,15.0455502 C4.8112868,16.4555808 6.7578468,17.5922767 9.12394307,18.2752234 C9.29509008,18.3249692 9.43101189,18.4355964 9.51438557,18.5767408 C9.59704492,18.7166759 9.62832975,18.8867697 9.58806193,19.0598882 C9.17987123,20.8395968 8.79641402,22.0073697 8.46162766,22.7830942 C8.43988078,22.8334834 8.41708049,22.885141 8.39317893,22.9381027 C8.4491316,22.923763 8.50416988,22.9092858 8.55821922,22.8947159 C10.4658323,22.3804898 13.4430484,21.1610351 14.1821478,19.3268114 C14.2318324,19.2053668 14.3129629,19.1051945 14.414047,19.033172 C14.5142574,18.9617721 14.6341241,18.9179961 14.7666018,18.9097391 C17.9746505,18.753133 20.831194,17.7311793 22.9144517,16.1643161 C25.0077623,14.5898919 26.3205018,12.4656952 26.4343303,10.1146196 C26.5173098,8.36375238 25.8427289,6.67848713 24.4732492,5.24260844 C22.161149,2.81510925 18.2015762,1.36065574 13.8811475,1.36065574 Z" id="Shape"></path>
            <path d="M22.4877049,7.93032787 C22.6941573,7.93032787 22.8802197,8.0139268 23.0148747,8.14858184 C23.1502014,8.28390844 23.2336066,8.47080172 23.2336066,8.67622951 C23.2336066,8.88319672 23.1506148,9.06967213 23.0158811,9.20440574 C22.885167,9.33511984 22.7057683,9.41706316 22.506232,9.42190709 L22.506232,9.42190709 L4.95491803,9.42213115 C4.74795082,9.42213115 4.56147541,9.33913934 4.4267418,9.20440574 C4.2920082,9.06967213 4.20901639,8.88319672 4.20901639,8.67622951 C4.20901639,8.4692623 4.2920082,8.28278689 4.4267418,8.14805328 C4.5574559,8.01733918 4.73685463,7.93539586 4.93639098,7.93055193 L4.93639098,7.93055193 L22.4877049,7.93032787 Z" id="Path"></path>
            <path d="M21.8647541,11.4836066 C22.0714928,11.4836066 22.257785,11.5664152 22.3929945,11.7008859 C22.5280136,11.8351672 22.6120902,12.0209629 22.6147285,12.2272854 C22.6141297,12.4378606 22.5312623,12.6234508 22.3970287,12.7576844 C22.2663146,12.8883985 22.086916,12.9703418 21.8873797,12.9751858 L21.8873797,12.9751858 L5.95081967,12.9754098 C5.74385246,12.9754098 5.55737705,12.892418 5.42264344,12.7576844 C5.28790984,12.6229508 5.20491803,12.4364754 5.20491803,12.2295082 C5.20491803,12.022541 5.28790984,11.8360656 5.42264344,11.701332 C5.5533575,11.5706179 5.73275615,11.4886746 5.93229242,11.4838306 L5.93229242,11.4838306 L21.8647541,11.4836066 Z" id="Path"></path>
        </g>
    </g>
</svg>