<?xml version="1.0" encoding="UTF-8"?>
<svg width="40px" height="43px" viewBox="0 0 40 43" version="1.1" xmlns="http://www.w3.org/2000/svg" xmlns:xlink="http://www.w3.org/1999/xlink">
    <title>Group</title>
    <g id="Page-1" stroke="none" stroke-width="1" fill="none" fill-rule="evenodd">
        <g id="Group" transform="translate(2.000000, 2.000000)" fill="#000000" fill-rule="nonzero">
            <g id="pixelied-m&amp;m" transform="translate(18.000000, 19.000000) scale(-1, 1) rotate(90.000000) translate(-18.000000, -19.000000) translate(-1.000000, 1.000000)">
                <path d="M34.080293,14.7668462 L37.8733333,10.9933846 L34.1869312,7.32592308 L34.9957265,6.52107692 C35.9110826,5.76946154 36.9823362,2.87707692 34.9957265,1.13292308 C32.5916117,-0.977769231 30.3022548,0.413230769 29.5790639,1.13292308 L15.1497354,15.4869231 C15.1482662,15.4875385 15.1470289,15.4883077 15.1454823,15.489 C13.806048,14.8933077 12.3220065,14.5616154 10.7598616,14.5616154 C4.8173545,14.5615385 0,19.3535385 0,25.2647692 C0,31.176 4.8173545,35.9680769 10.7598616,35.9680769 C16.7023687,35.9680769 21.5197232,31.1760769 21.5197232,25.2647692 C21.5197232,23.6993846 21.1798575,22.2137692 20.5722751,20.874 L25.793602,15.6751538 L28.6689662,18.535 L32.4620065,14.7615385 L29.5866422,11.9016923 L30.3931176,11.0993846 L34.080293,14.7668462 Z M30.2873301,14.7615385 L28.6690435,16.3716923 L25.7936793,13.5117692 L18.7086976,20.5546154 C19.5362068,21.9326923 20.0134107,23.5427692 20.0134107,25.2647692 C20.0134107,30.3484615 15.8704518,34.4695385 10.7599389,34.4695385 C5.6493488,34.4695385 1.50646724,30.3483846 1.50646724,25.2647692 C1.50646724,20.1811538 5.64950346,16.1003077 10.7598616,16.06 C13.1292552,16.0413077 15.4650102,17.3364615 15.4650102,17.3364615 L30.6665568,2.21461538 C31.5331176,1.35407692 33.0385796,1.35646154 33.9083883,2.21461538 C35.1799267,3.46907692 34.3409727,5.00869231 33.9083883,5.43938462 L32.0122548,7.32592308 L35.6986569,10.9933846 L34.0803704,12.6034615 L30.393195,8.93607692 L27.4119658,11.9016923 L30.2873301,14.7615385 Z" id="Shape"></path>
                <path d="M10.7447823,20.7826923 C8.25954823,20.7826923 6.24494505,22.7867692 6.24494505,25.2588462 C6.24494505,27.731 8.25962556,29.735 10.7447823,29.735 C13.2299389,29.735 15.2446195,27.7309231 15.2446195,25.2588462 C15.2446195,22.7867692 13.2300163,20.7826923 10.7447823,20.7826923 Z M10.7447823,28.2052308 C9.1089418,28.2052308 7.78288563,26.8860769 7.78288563,25.2589231 C7.78288563,23.6317692 9.10901913,22.3126154 10.7447823,22.3126154 C12.3805454,22.3126154 13.7066789,23.6317692 13.7066789,25.2589231 C13.7066789,26.8860769 12.3806227,28.2052308 10.7447823,28.2052308 Z" id="Shape"></path>
            </g>
        </g>
    </g>
</svg>