<?xml version="1.0" encoding="UTF-8"?>
<svg width="40px" height="33px" viewBox="0 0 40 33" version="1.1" xmlns="http://www.w3.org/2000/svg" xmlns:xlink="http://www.w3.org/1999/xlink">
    <title>Group</title>
    <g id="Page-1" stroke="none" stroke-width="1" fill="none" fill-rule="evenodd">
        <g id="Group" transform="translate(0.000000, 3.000000)" fill="#000000" fill-rule="nonzero">
            <path d="M36.2116262,0 L3.7883735,0 C1.72248821,0 0.0477251247,1.67468834 0.0477251247,3.74064838 L0.0477251247,26.1845387 C0.0477251247,28.2504374 1.7224884,29.925187 3.7883735,29.925187 L36.2116257,29.925187 C38.2775244,29.925187 39.9522741,28.2504374 39.9522741,26.1845387 L39.9522741,3.74064838 C39.9522741,1.67468834 38.277525,0 36.2116262,0 Z M38.7053918,25.6301756 L26.9105667,13.8354111 L38.7053918,6.31945147 L38.7053918,25.6301756 L38.7053918,25.6301756 Z M3.78837332,1.24688279 L36.2116257,1.24688279 C37.5866885,1.24688279 38.7053913,2.36552376 38.7053913,3.74064838 L38.7053913,4.84189545 L21.5384978,15.7814216 C20.6094454,16.3732539 19.4228486,16.3549866 18.5150566,15.737593 L1.29460773,4.03335387 L1.29460773,3.74064838 C1.29460773,2.36552375 2.41337325,1.24688279 3.78837332,1.24688279 Z M1.29460773,5.5394018 L13.2557675,13.6690152 L1.29460773,25.6301756 L1.29460773,5.5394018 Z M36.2116262,28.6783042 L3.78837319,28.6783042 C2.7613159,28.6783042 1.87821122,28.0535524 1.4965404,27.1646519 L14.2894963,14.3716329 L17.8149318,16.7677682 C18.4919276,17.2280552 19.2749073,17.4587896 20.0590713,17.4587896 C20.8042715,17.4587896 21.550656,17.2505604 22.2076377,16.8322946 L25.8500315,14.5112213 L38.5034608,27.1646518 C38.1217883,28.0535524 37.2386978,28.6783042 36.2116262,28.6783042 Z" id="Mail"></path>
        </g>
    </g>
</svg>