<?xml version="1.0" encoding="UTF-8"?>
<svg width="39px" height="39px" viewBox="0 0 39 39" version="1.1" xmlns="http://www.w3.org/2000/svg" xmlns:xlink="http://www.w3.org/1999/xlink">
    <title>Group</title>
    <g id="Page-1" stroke="none" stroke-width="1" fill="none" fill-rule="evenodd">
        <g id="Group" fill="#000000" fill-rule="nonzero">
            <path d="M29.3954839,18.8219355 L15.2019355,9.14451613 C15.003871,9.01032258 14.7483871,8.99548387 14.5367742,9.10709677 C14.3258065,9.21870968 14.1935484,9.43806452 14.1935484,9.67741935 L14.1935484,29.0322581 C14.1935484,29.2716129 14.3258065,29.4909677 14.5374194,29.6025806 C14.6316129,29.6529032 14.7354839,29.6774194 14.8387097,29.6774194 C14.9658065,29.6774194 15.0929032,29.6393548 15.2019355,29.5651613 L29.3954839,19.8877419 C29.5716129,19.7677419 29.6774194,19.5683871 29.6774194,19.3548387 C29.6774194,19.1412903 29.5716129,18.9419355 29.3954839,18.8219355 Z M15.483871,27.8109677 L15.483871,10.8987097 L27.8870968,19.3548387 L15.483871,27.8109677 Z" id="Shape"></path>
            <path d="M19.3548387,0 C8.68258065,0 0,8.68258065 0,19.3548387 C0,30.0270968 8.68258065,38.7096774 19.3548387,38.7096774 C30.0270968,38.7096774 38.7096774,30.0270968 38.7096774,19.3548387 C38.7096774,8.68258065 30.0270968,0 19.3548387,0 Z M19.3548387,37.4193548 C9.39419355,37.4193548 1.29032258,29.3154839 1.29032258,19.3548387 C1.29032258,9.39419355 9.39419355,1.29032258 19.3548387,1.29032258 C29.3154839,1.29032258 37.4193548,9.39419355 37.4193548,19.3548387 C37.4193548,29.3154839 29.3154839,37.4193548 19.3548387,37.4193548 Z" id="Shape"></path>
        </g>
    </g>
</svg>