<?xml version="1.0" encoding="UTF-8"?>
<svg width="40px" height="40px" viewBox="0 0 40 40" version="1.1" xmlns="http://www.w3.org/2000/svg" xmlns:xlink="http://www.w3.org/1999/xlink">
    <title>Group</title>
    <g id="Page-1" stroke="none" stroke-width="1" fill="none" fill-rule="evenodd">
        <g id="Group" fill="#000000" fill-rule="nonzero">
            <path d="M19.5764706,0 C8.76498824,0 0,8.76498824 0,19.5764706 C0,30.3879529 8.76498824,39.1529412 19.5764706,39.1529412 C30.3879529,39.1529412 39.1529412,30.3879529 39.1529412,19.5764706 C39.1529412,8.76498824 30.3879529,0 19.5764706,0 Z M19.5764706,37.6470588 C9.59623529,37.6470588 1.50588235,29.5567059 1.50588235,19.5764706 C1.50588235,9.59623529 9.59623529,1.50588235 19.5764706,1.50588235 C29.5567059,1.50588235 37.6470588,9.59623529 37.6470588,19.5764706 C37.6470588,29.5567059 29.5567059,37.6470588 19.5764706,37.6470588 Z" id="Shape"></path>
            <path d="M32,18.8235294 L20.3294118,18.8235294 L20.3294118,7.15294118 C20.3294118,6.94512941 20.1607529,6.77647059 19.9529412,6.77647059 L19.2,6.77647059 C18.9921882,6.77647059 18.8235294,6.94512941 18.8235294,7.15294118 L18.8235294,18.8235294 L7.15294118,18.8235294 C6.94512941,18.8235294 6.77647059,18.9921882 6.77647059,19.2 L6.77647059,19.9529412 C6.77647059,20.1607529 6.94512941,20.3294118 7.15294118,20.3294118 L18.8235294,20.3294118 L18.8235294,32 C18.8235294,32.2070588 18.9921882,32.3764706 19.2,32.3764706 L19.9529412,32.3764706 C20.1607529,32.3764706 20.3294118,32.2070588 20.3294118,32 L20.3294118,20.3294118 L32,20.3294118 C32.2070588,20.3294118 32.3764706,20.1607529 32.3764706,19.9529412 L32.3764706,19.2 C32.3764706,18.9921882 32.2070588,18.8235294 32,18.8235294 Z" id="Path"></path>
        </g>
    </g>
</svg>