<?xml version="1.0" encoding="UTF-8"?>
<svg width="40px" height="37px" viewBox="0 0 40 37" version="1.1" xmlns="http://www.w3.org/2000/svg" xmlns:xlink="http://www.w3.org/1999/xlink">
    <title>Group</title>
    <g id="Page-1" stroke="none" stroke-width="1" fill="none" fill-rule="evenodd">
        <g id="Group" fill="#000000" fill-rule="nonzero">
            <path d="M25.416129,5.34516129 C25.1290323,4.99677419 25.1774194,4.49032258 25.5258065,4.20322581 L30.3870968,0.187096774 C30.7322581,-0.0967741935 31.2419355,-0.0516129032 31.5290323,0.293548387 C31.8129032,0.638709677 31.7677419,1.1483871 31.4193548,1.43548387 L26.5580645,5.45483871 C26.2129032,5.73870968 25.7032258,5.69354839 25.416129,5.34516129 Z M1.7516129,20.5741935 C1.4516129,21.1064516 1.31612903,21.7935484 1.32580645,22.5290323 C1.32903226,22.8451613 1.36129032,23.1709677 1.41612903,23.5 C1.47096774,23.8322581 1.55483871,24.1645161 1.65806452,24.4903226 C1.76451613,24.8193548 1.89354839,25.1387097 2.04516129,25.4451613 C2.19354839,25.7419355 2.36129032,26.0258065 2.54516129,26.283871 C2.99677419,26.9129032 3.55806452,27.4129032 4.20645161,27.6645161 C4.77096774,27.8870968 6.89032258,27.5548387 7.07741935,27.4967742 L7.59032258,27.3387097 C7.77741935,27.283871 7.95483871,27.2322581 8.12258065,27.183871 C8.28709677,27.1354839 8.45483871,27.0903226 8.62580645,27.0451613 C8.80322581,26.9967742 8.98064516,27.0258065 9.12903226,27.1096774 L9.14516129,27.1193548 C9.28387097,27.2032258 9.39032258,27.3387097 9.43870968,27.5096774 C9.4483871,27.5387097 9.4516129,27.5612903 9.45483871,27.5870968 C9.5,27.7903226 9.55483871,28 9.59354839,28.2032258 C9.94516129,29.7774194 10.2870968,31.2935484 10.7419355,32.5225806 C10.7806452,32.6451613 10.8290323,32.7645161 10.8741935,32.8870968 C11.0129032,33.2741935 11.1580645,33.6741935 11.3193548,34.0387097 C11.4741935,34.3935484 11.6387097,34.7096774 11.8258065,34.9419355 L11.8258065,34.9451613 C11.9645161,35.1193548 12.1258065,35.2290323 12.316129,35.2387097 C12.5258065,35.2483871 12.7870968,35.1483871 13.116129,34.8935484 C13.2580645,34.7612903 13.3870968,34.6483871 13.5193548,34.5354839 L13.5483871,34.5096774 C13.9354839,34.1741935 14.3225806,33.8419355 14.4903226,33.3870968 C14.4645161,33.3677419 14.4354839,33.3483871 14.4032258,33.3322581 C14.3290323,33.2903226 14.2354839,33.2483871 14.1419355,33.2096774 L14.1322581,33.2064516 C13.7870968,33.0612903 13.4451613,32.9129032 13.1967742,32.6032258 C12.9451613,32.2903226 12.8096774,31.8354839 12.9032258,31.0935484 C12.9064516,31.0483871 12.9129032,31.0096774 12.9193548,30.9709677 C12.9258065,30.9258065 12.9322581,30.8806452 12.9354839,30.8354839 C12.9774194,30.5 13,30.3258065 12.9870968,30.2774194 L12.9870968,30.2709677 C12.9774194,30.2580645 12.9096774,30.2096774 12.7741935,30.083871 C12.7354839,30.0483871 12.6935484,30.0129032 12.6580645,29.9741935 C12.4580645,29.7870968 12.316129,29.5645161 12.2258065,29.3193548 C12.1258065,29.0483871 12.0870968,28.7516129 12.0903226,28.4419355 C12.0935484,28.1387097 12.1387097,27.8225806 12.2064516,27.5225806 C12.2903226,27.1580645 12.4096774,26.8096774 12.5290323,26.5225806 L12.5354839,26.5129032 C12.5806452,26.4064516 12.6516129,26.3193548 12.7354839,26.2548387 C12.8258065,26.183871 12.9354839,26.1387097 13.0483871,26.1225806 L13.0548387,26.1225806 C15.4967742,25.783871 17.4677419,25.8290323 19.1225806,26.0419355 C20.616129,26.2354839 21.8451613,26.5612903 22.9387097,26.8709677 C22.1032258,25.9193548 21.3354839,24.8 20.6419355,23.5806452 C19.7483871,22.0064516 18.9806452,20.2612903 18.3612903,18.4935484 C17.7354839,16.7064516 17.2612903,14.8935484 16.9645161,13.2032258 C16.716129,11.783871 16.5903226,10.4483871 16.6064516,9.29032258 C15.6741935,10.6290323 14.4193548,12.2548387 12.5741935,13.8935484 C10.4677419,15.7612903 2.01290323,20.1129032 1.7516129,20.5741935 Z M23.3483871,25.2903226 C24.0387097,26.1806452 24.7806452,26.9451613 25.5612903,27.5225806 L25.6419355,27.5290323 C25.6806452,27.5322581 25.7193548,27.5322581 25.7516129,27.5290323 L25.7645161,27.5290323 C25.8258065,27.5258065 25.8870968,27.516129 25.9516129,27.4967742 C26.0129032,27.4774194 26.0774194,27.4483871 26.1451613,27.4096774 C26.3096774,27.2419355 26.4451613,27.0225806 26.5548387,26.7645161 C26.6774194,26.4806452 26.7677419,26.1451613 26.8258065,25.7709677 C27.0032258,24.6645161 26.9193548,23.2483871 26.6451613,21.683871 C26.3451613,19.9741935 25.8129032,18.0935484 25.1419355,16.2516129 C24.483871,14.4419355 23.6903226,12.6741935 22.8451613,11.1451613 C22.0419355,9.68709677 21.1935484,8.4483871 20.3741935,7.6 C20.0677419,7.28064516 19.7709677,7.02580645 19.4903226,6.84193548 C19.2290323,6.67096774 18.9870968,6.56129032 18.7645161,6.52580645 L18.7580645,6.52580645 C18.7064516,6.51612903 18.6645161,6.51290323 18.6322581,6.50967742 C18.6193548,6.50967742 18.6322581,6.5 18.6258065,6.50322581 C18.6225806,6.50322581 18.6225806,6.50967742 18.6064516,6.52258065 C18.5774194,6.5483871 18.5354839,6.58709677 18.4870968,6.63548387 C18.4451613,6.67419355 18.4032258,6.72258065 18.3645161,6.76774194 L18.3516129,6.79354839 C17.9774194,7.56774194 17.8483871,8.79354839 17.9290323,10.2870968 C18.0129032,11.8032258 18.316129,13.5870968 18.8096774,15.4387097 C20.2129032,15.116129 22.5032258,21.4 21.3451613,22.1032258 C21.9516129,23.2677419 22.6225806,24.3516129 23.3483871,25.2903226 Z M25.2548387,28.8419355 C25.1935484,28.8322581 25.1322581,28.816129 25.0741935,28.7870968 C24.9870968,28.7709677 24.9,28.7548387 24.816129,28.7354839 C24.2064516,28.6096774 23.6129032,28.4387097 22.9741935,28.2580645 L22.9322581,28.2451613 C20.7419355,27.6225806 18.0032258,26.8419355 13.616129,27.383871 C13.5580645,27.5516129 13.5096774,27.7322581 13.4709677,27.9096774 C13.4322581,28.0967742 13.4096774,28.283871 13.4064516,28.4548387 C13.4064516,28.5903226 13.4193548,28.716129 13.4483871,28.8193548 C13.4709677,28.8967742 13.5064516,28.9612903 13.5548387,29.0064516 L13.6322581,29.0774194 C13.9903226,29.4032258 14.1645161,29.5645161 14.2645161,29.9322581 C14.3451613,30.2290323 14.3096774,30.5032258 14.2387097,31.0451613 C14.2290323,31.1193548 14.2225806,31.1935484 14.2096774,31.2677419 C14.1774194,31.5290323 14.2193548,31.6806452 14.2967742,31.7741935 C14.3774194,31.8709677 14.516129,31.9322581 14.6580645,31.9903226 L14.6741935,31.9967742 C15.1258065,32.1903226 15.5774194,32.3870968 15.8096774,33.0290323 C15.8354839,33.0870968 15.8516129,33.1516129 15.8580645,33.216129 C15.8645161,33.2806452 15.8645161,33.3451613 15.8516129,33.4129032 L15.8516129,33.416129 C15.7516129,33.9354839 15.5387097,34.3322581 15.2709677,34.6709677 C15.0096774,35.0032258 14.7,35.2677419 14.3935484,35.5322581 L14.3225806,35.5935484 C14.216129,35.683871 14.1129032,35.7741935 14.0129032,35.8709677 L13.9612903,35.916129 C13.2612903,36.4741935 12.6645161,36.6741935 12.1387097,36.6193548 C11.6064516,36.5645161 11.1645161,36.2483871 10.7903226,35.7774194 C10.5322581,35.4548387 10.3193548,35.0580645 10.1290323,34.6354839 C9.94193548,34.216129 9.78064516,33.7741935 9.62580645,33.3451613 C9.58387097,33.2258065 9.53870968,33.1064516 9.49354839,32.9870968 C9.19281484,32.1763354 8.94200039,31.255496 8.70724142,30.281018 C8.56931671,29.7084965 8.436934,29.1174602 8.30322581,28.5193548 C8.18709677,28.5516129 8.07096774,28.5903226 7.95483871,28.6225806 C7.77419355,28.6774194 7.59677419,28.7290323 7.42580645,28.783871 C7.2516129,28.8387097 4.43870968,29.2129032 3.67096774,28.9032258 C2.8,28.5483871 2.0516129,27.8870968 1.45806452,27.0580645 L1.4516129,27.0516129 C1.22903226,26.7322581 1.02903226,26.3903226 0.851612903,26.0290323 C0.670967742,25.6645161 0.519354839,25.283871 0.393548387,24.8967742 C0.267741935,24.5096774 0.170967742,24.1129032 0.106451613,23.716129 C0.0419354839,23.3225806 0.0064516129,22.9290323 -2.55248296e-15,22.5419355 C-0.00967741935,21.5677419 0.180645161,20.6451613 0.603225806,19.9 C0.856989248,19.4548387 1.7311828,18.8430107 3.22580645,18.0645161 C7.75698926,15.6537635 10.7010753,13.8193548 12.0580645,12.5612903 C14.0935484,10.6741935 15.3322581,8.82903226 16.2258065,7.48709677 L16.2451613,7.45806452 C16.7451613,6.70967742 17.1483871,6.11290323 17.5516129,5.70967742 C17.6548387,5.60645161 17.7451613,5.52258065 17.8419355,5.4516129 C17.9419355,5.37741935 18.0451613,5.31935484 18.1645161,5.27419355 C18.2903226,5.22903226 18.4129032,5.20322581 18.5451613,5.19677419 C18.6741935,5.19032258 18.8129032,5.20322581 18.9741935,5.22903226 C19.3548387,5.29032258 19.7419355,5.4483871 20.1322581,5.69354839 C20.5290323,5.94193548 20.9290323,6.28064516 21.3258065,6.69354839 C22.2096774,7.60967742 23.1193548,8.93225806 23.9741935,10.4774194 C24.8645161,12.083871 25.6967742,13.9290323 26.3806452,15.816129 C27.083871,17.7516129 27.6387097,19.7322581 27.9516129,21.5483871 C28.2387097,23.2225806 28.3225806,24.7612903 28.1225806,25.9903226 C28.0387097,26.5064516 27.9064516,26.9774194 27.7225806,27.383871 C27.5419355,27.783871 27.3064516,28.1290323 27.016129,28.4096774 C27.0032258,28.4225806 26.9870968,28.4354839 26.9741935,28.4483871 C26.9548387,28.4612903 26.9354839,28.4774194 26.916129,28.4903226 C26.7258065,28.616129 26.5419355,28.7064516 26.3580645,28.7645161 C26.1709677,28.8258065 25.983871,28.8548387 25.7967742,28.8645161 L25.783871,28.8645161 C25.7193548,28.8645161 25.6580645,28.8645161 25.6,28.8612903 C25.5548387,28.8516129 25.5,28.8483871 25.4483871,28.8419355 C25.383871,28.8516129 25.3193548,28.8516129 25.2548387,28.8419355 Z M32.5483871,24.5387097 C32.5290323,24.0903226 32.8774194,23.716129 33.3258065,23.7 L39.0032258,23.4870968 C39.4483871,23.4741935 39.8225806,23.8225806 39.8419355,24.2645161 C39.8580645,24.7129032 39.5129032,25.0870968 39.0645161,25.1064516 L33.3870968,25.316129 C32.9387097,25.3354839 32.5645161,24.9870968 32.5483871,24.5387097 Z M32.316129,19.1064516 C32.2580645,18.6612903 32.5709677,18.2548387 33.0096774,18.1967742 L38.2548387,17.5 C38.7,17.4419355 39.1064516,17.7548387 39.1645161,18.1935484 C39.2225806,18.6387097 38.9096774,19.0451613 38.4709677,19.1032258 L33.2258065,19.8 C32.7806452,19.8580645 32.3741935,19.5451613 32.316129,19.1064516 Z M31.0903226,14.2354839 C30.9419355,13.8129032 31.1677419,13.3483871 31.5903226,13.2032258 L36.9677419,11.3354839 C37.3903226,11.183871 37.8548387,11.4129032 38,11.8354839 C38.1483871,12.2580645 37.9225806,12.7225806 37.5,12.8677419 L32.1225806,14.7354839 C31.7,14.8806452 31.2354839,14.6580645 31.0903226,14.2354839 Z M28.483871,9.55806452 C28.2612903,9.17096774 28.3967742,8.67741935 28.7870968,8.45483871 L33.883871,5.53225806 C34.2709677,5.30967742 34.7677419,5.44516129 34.9870968,5.83548387 C35.2096774,6.22258065 35.0741935,6.71612903 34.683871,6.93870968 L29.5870968,9.86129032 C29.2,10.083871 28.7032258,9.9483871 28.483871,9.55806452 Z" id="Shape"></path>
        </g>
    </g>
</svg>