<?xml version="1.0" encoding="UTF-8"?>
<svg width="40px" height="44px" viewBox="0 0 40 44" version="1.1" xmlns="http://www.w3.org/2000/svg" xmlns:xlink="http://www.w3.org/1999/xlink">
    <title>Group</title>
    <g id="Page-1" stroke="none" stroke-width="1" fill="none" fill-rule="evenodd">
        <g id="Group" transform="translate(-0.500000, 1.000000)" fill="#040000" fill-rule="nonzero">
            <path d="M24.8102685,0 C25.175876,0 25.5415067,0.136485376 25.8241727,0.409121801 L25.8241727,0.409121801 L29.0561279,3.64045906 C29.3301242,3.91425073 29.484071,4.28571536 29.484071,4.67306063 C29.484071,5.06038469 29.3301536,5.43184115 29.0561834,5.70560685 C28.4236027,6.33809982 28.0746153,7.17982935 28.0746153,8.074597 C28.0746153,8.9982232 28.4504536,9.83577055 29.057116,10.4424352 C29.6637184,11.0490398 30.5011887,11.424894 31.4248997,11.424894 C32.3203866,11.424894 33.161221,11.0763654 33.7938464,10.443647 C34.0783829,10.1586576 34.4519084,10.0160954 34.8256598,10.0160954 C35.1913182,10.0160954 35.5571063,10.1526227 35.8398931,10.4254561 L35.8398931,10.4254561 L39.0720296,13.656689 C39.3458525,13.9306392 39.5,14.3020598 39.5,14.6893742 C39.5,15.0684275 39.3527988,15.4323156 39.089349,15.704468 L39.089349,15.704468 L16.2221445,38.5720298 C15.9369506,38.8576957 15.5631054,39 15.1894649,39 C14.8240906,39 14.4585381,38.8638961 14.1755518,38.5904888 L14.1755518,38.5904888 L10.9434736,35.3593849 C10.6697394,35.0855319 10.5156945,34.7135865 10.5156945,34.3268255 C10.5157928,33.9395882 10.6696418,33.5682252 10.943448,33.2944225 C11.576055,32.6613629 11.9250939,31.8196983 11.9250939,30.9250637 C11.9250939,30.0013033 11.5492998,29.1637891 10.9426886,28.5571755 C10.3360774,27.9505621 9.49856626,27.5747667 8.57480936,27.5747667 C7.67944126,27.5747667 6.83862512,27.9231789 6.20621891,28.5559475 C5.92148198,28.8410388 5.54779325,28.983638 5.17398871,28.983638 C4.80840013,28.983638 4.44278514,28.8471763 4.16017345,28.5744683 L4.16017345,28.5744683 L0.927818483,25.3429167 C0.653968594,25.0690657 0.5,24.6974876 0.5,24.3103834 C0.5,23.9313299 0.647213145,23.5674436 0.910646628,23.2952948 L0.910646628,23.2952948 L23.7779493,0.427633957 C24.0628387,0.142566901 24.4365009,0 24.8102685,0 Z M24.8103917,1.52106178 L16.452867,9.87849699 L18.2299215,11.6560136 L18.233263,11.6608616 C18.2372252,11.667553 18.2392132,11.6750844 18.2392132,11.6826209 C18.2392132,11.6938081 18.2345614,11.7047786 18.2260084,11.7133248 C18.2175252,11.7218216 18.2066782,11.7256516 18.1959766,11.7256516 C18.1851884,11.7256516 18.1743091,11.7216991 18.1660375,11.7134172 L18.1660375,11.7134172 L16.3918929,9.93944573 L2.02181857,24.3102305 L5.1674091,27.456406 L5.40688045,27.2473879 L5.43334779,27.2246237 C6.30905861,26.4768551 7.41071969,26.0711283 8.57480936,26.0711283 C9.91294211,26.0711283 11.1260722,26.6159944 12.0048647,27.4947902 C12.8836706,28.3735994 13.4285327,29.5867504 13.4285327,30.9248698 C13.4285327,32.2066081 12.9352115,33.4134535 12.0365707,34.3258559 L12.0365707,34.3258559 L15.1893275,37.4790072 L29.5602385,23.1077141 L27.7831341,21.3301548 L27.7798179,21.3253544 C27.7758847,21.3187309 27.7739072,21.3112832 27.7739072,21.3038241 C27.7739072,21.2927897 27.7782084,21.2818045 27.7866129,21.2734017 C27.7951092,21.2649002 27.8061301,21.2608176 27.8170953,21.2608176 C27.8279481,21.2608176 27.8389225,21.2647412 27.8472391,21.273063 L27.8472391,21.273063 L29.6209985,23.0473701 L37.9783461,14.6889055 L34.8316529,11.543156 L34.5922412,11.7523139 L34.5657931,11.7750818 C33.6907118,12.5229661 32.5890899,12.9283384 31.4250936,12.9283384 C30.0869297,12.9283384 28.8737673,12.3835179 27.9949667,11.504714 C27.1161929,10.6259369 26.5713704,9.4128026 26.5713704,8.074597 C26.5713704,6.79304385 27.0647476,5.58514239 27.963549,4.67308228 L27.963549,4.67308228 L24.8103917,1.52106178 Z" id="Shape"></path>
            <path d="M24.2198301,17.313508 C24.3122828,17.313508 24.4048974,17.3484939 24.4756869,17.4193419 L24.4756869,17.4193419 L25.7410543,18.6845052 C25.8117178,18.7551687 25.8471426,18.8477249 25.8471426,18.9403105 C25.8471426,19.0326574 25.8118811,19.1249794 25.7413842,19.1954036 C25.6700372,19.2668672 25.5776639,19.3018769 25.4853892,19.3018769 C25.3886104,19.3020743 25.2975742,19.2642301 25.2307755,19.1967845 L25.2307755,19.1967845 L23.9641435,17.9302547 C23.8936132,17.8597827 23.858319,17.7674138 23.858319,17.6750191 C23.858319,17.5824813 23.8937112,17.4899719 23.9643414,17.4193563 C24.0352363,17.34833 24.1276167,17.313508 24.2198301,17.313508 Z M20.4240453,13.5177614 C20.5165352,13.5177614 20.6091765,13.5527876 20.6798888,13.6235438 L20.6798888,13.6235438 L21.9451696,14.8888246 C22.0158156,14.9594559 22.0512048,15.051997 22.0512048,15.1445548 C22.0512048,15.2369228 22.0159696,15.3292812 21.9454696,15.3997229 C21.8742838,15.4709962 21.7818635,15.5060241 21.6895407,15.5060241 C21.597205,15.5060241 21.5047028,15.4710308 21.4342185,15.4003297 L21.4342185,15.4003297 L20.1683969,14.1345081 C20.0978666,14.0640361 20.0625724,13.9716672 20.0625724,13.8792726 C20.0625724,13.7867347 20.0979646,13.6942253 20.1685948,13.6236097 C20.2394822,13.5525909 20.3318425,13.5177614 20.4240453,13.5177614 Z M15.9845364,9 C16.1085144,9 16.2326955,9.04695958 16.3274819,9.14182233 L16.3274819,9.14182233 L18.0235278,10.8381836 C18.1182252,10.932879 18.1656627,11.0569487 18.1656627,11.1810409 C18.1656627,11.3048786 18.1184316,11.4287035 18.0239299,11.5231447 C17.9285089,11.6187008 17.804624,11.6656627 17.6808699,11.6656627 C17.5570985,11.6656627 17.4331039,11.6187472 17.3386233,11.5239582 L17.3386233,11.5239582 L15.6418524,9.82687193 C15.5473101,9.73239009 15.5,9.60855127 15.5,9.48467779 C15.5,9.36061229 15.5474414,9.23658506 15.6421177,9.14191071 C15.7371388,9.0466959 15.8609431,9 15.9845364,9 Z M28.3188737,21.3343373 C28.4428518,21.3343373 28.5670329,21.3812969 28.6618193,21.4761597 L28.6618193,21.4761597 L30.3578651,23.1725209 C30.4525625,23.2672163 30.5,23.3912861 30.5,23.5153783 C30.5,23.639216 30.4527689,23.7630408 30.3582673,23.8574821 C30.2628462,23.9530382 30.1389614,24 30.0152072,24 C29.8914358,24 29.7674413,23.9530845 29.6729607,23.8582955 L29.6729607,23.8582955 L27.9761898,22.1612093 C27.8816475,22.0667274 27.8343373,21.9428886 27.8343373,21.8190151 C27.8343373,21.6949496 27.8817788,21.5709224 27.9764551,21.4762481 C28.0714762,21.3810333 28.1952805,21.3343373 28.3188737,21.3343373 Z" id="Shape"></path>
        </g>
    </g>
</svg>