<?xml version="1.0" standalone="no"?>
<!DOCTYPE svg PUBLIC "-//W3C//DTD SVG 20010904//EN"
 "http://www.w3.org/TR/2001/REC-SVG-20010904/DTD/svg10.dtd">
<svg version="1.0" xmlns="http://www.w3.org/2000/svg"
 width="288.000000pt" height="288.000000pt" viewBox="0 0 288.000000 288.000000"
 preserveAspectRatio="xMidYMid meet">
<metadata>
Created by potrace 1.14, written by Peter Selinger 2001-2017
</metadata>
<g transform="translate(0.000000,288.000000) scale(0.100000,-0.100000)"
fill="#000000" stroke="none">
<path d="M1342 2864 c-24 -9 -155 -80 -292 -159 -137 -80 -264 -153 -283 -164
-60 -34 -81 -46 -91 -54 -6 -4 -93 -56 -193 -115 -214 -126 -226 -135 -263
-187 -58 -84 -60 -105 -60 -604 0 -282 4 -470 10 -493 15 -52 50 -73 186 -109
164 -43 184 -52 184 -86 0 -16 -14 -77 -31 -138 -17 -60 -33 -130 -36 -155 -9
-81 2 -89 407 -326 468 -274 453 -267 560 -268 76 0 91 3 146 31 50 26 537
306 649 374 17 10 44 26 60 35 139 77 278 165 316 201 48 45 82 102 98 168 12
51 12 1192 -1 1249 -14 62 -44 119 -86 160 -29 30 -215 148 -347 221 -23 13
-123 71 -145 85 -63 40 -495 286 -546 311 -76 38 -172 47 -242 23z"/>
</g>
</svg>
